<svg xmlns="http://www.w3.org/2000/svg" xmlns:xlink="http://www.w3.org/1999/xlink" width="1711.429" height="1062.598" viewBox="0 0 1711.429 1062.598"><defs><style>.a{fill:#3674ef;}.b{fill:url(#a);}</style><linearGradient id="a" x1="1.113" y1="-0.162" x2="0.572" y2="0.636" gradientUnits="objectBoundingBox"><stop offset="0" stop-color="#002971" stop-opacity="0.941"/><stop offset="1" stop-color="#4a7bee"/></linearGradient></defs><g transform="translate(-126.668 0)"><path class="a" d="M4228.98-12s-9.817,84.938,24.25,147.3c27.162,49.719,93.64,77.487,133,91.216,88.455,30.85,442.272-7.713,616.723,113.117,45.532,31.537,74.326,74.807,95.072,121.888,58.922,133.714,53.656,298.728,182.576,317.727,174.452,25.708,400.5,59.129,464.385,174.818s194.108,95.121,194.108,95.121V-12Z" transform="translate(-4101 12)"/><path class="b" d="M4228.948-12s-9.57,83.02,23.64,143.969c26.479,48.6,91.287,75.737,129.661,89.155,86.232,30.153,431.16-7.538,601.228,110.562C5061.538,385.9,5089.134,475.572,5112.6,559.2c27.64,98.5,49.54,188.576,141.547,202.17,170.068,25.128,390.439,57.794,452.717,170.869s189.231,92.973,189.231,92.973V-12Z" transform="translate(-4058 13)"/></g></svg>