<svg xmlns="http://www.w3.org/2000/svg" width="34.286" height="22" viewBox="0 0 34.286 22"><defs><style>.a{fill:none;stroke:#51acef;}</style></defs><path class="a" d="M24.195,16.5A4.5,4.5,0,1,0,19.656,12,4.5,4.5,0,0,0,24.195,16.5Zm-12.1,0A4.5,4.5,0,1,0,7.552,12,4.5,4.5,0,0,0,12.091,16.5Zm0,3C8.566,19.5,1.5,21.255,1.5,24.75V28.5H22.682V24.75C22.682,21.255,15.616,19.5,12.091,19.5Zm12.1,0c-.439,0-.938.03-1.468.075a6.319,6.319,0,0,1,2.981,5.175V28.5h9.078V24.75C34.786,21.255,27.72,19.5,24.195,19.5Z" transform="translate(-1 -7)"/></svg>