<svg xmlns="http://www.w3.org/2000/svg" xmlns:xlink="http://www.w3.org/1999/xlink" width="1920.991" height="619.962" viewBox="0 0 1920.991 619.962"><defs><style>.a{fill:url(#a);}.b{fill:rgba(80,80,80,0.11);}.c{fill:url(#b);}</style><linearGradient id="a" x1="0.5" x2="0.5" y2="1" gradientUnits="objectBoundingBox"><stop offset="0" stop-color="#5080f1"/><stop offset="1" stop-color="#384194"/></linearGradient><linearGradient id="b" x1="0.311" y1="0.168" x2="1.661" y2="1.082" gradientUnits="objectBoundingBox"><stop offset="0" stop-color="#50d1f1"/><stop offset="1" stop-color="#535ceb"/></linearGradient></defs><g transform="translate(0 -3260.468)"><path class="a" d="M0,2814.113s243.244-47.174,497.049,8.464,374.787,78.64,537.948,33.251,405.429-35.14,519.147-14.641,366.847,117.243,366.847,117.243L0,2957.405Z" transform="translate(0 922)"/><circle class="b" cx="5" cy="5" r="5" transform="matrix(-0.883, 0.469, -0.469, -0.883, 1795.518, 3400.879)"/><circle class="b" cx="5" cy="5" r="5" transform="matrix(-0.883, 0.469, -0.469, -0.883, 1825.538, 3416.841)"/><circle class="b" cx="5" cy="5" r="5" transform="matrix(-0.883, 0.469, -0.469, -0.883, 1855.558, 3432.803)"/><circle class="b" cx="5" cy="5" r="5" transform="matrix(-0.883, 0.469, -0.469, -0.883, 1885.578, 3448.765)"/><circle class="b" cx="5" cy="5" r="5" transform="matrix(-0.883, 0.469, -0.469, -0.883, 1915.599, 3464.727)"/><circle class="b" cx="5" cy="5" r="5" transform="matrix(-0.883, 0.469, -0.469, -0.883, 1779.556, 3430.899)"/><circle class="b" cx="5" cy="5" r="5" transform="matrix(-0.883, 0.469, -0.469, -0.883, 1809.576, 3446.861)"/><circle class="b" cx="5" cy="5" r="5" transform="matrix(-0.883, 0.469, -0.469, -0.883, 1839.596, 3462.823)"/><circle class="b" cx="5" cy="5" r="5" transform="matrix(-0.883, 0.469, -0.469, -0.883, 1869.616, 3478.785)"/><circle class="b" cx="5" cy="5" r="5" transform="matrix(-0.883, 0.469, -0.469, -0.883, 1899.636, 3494.747)"/><circle class="b" cx="5" cy="5" r="5" transform="matrix(-0.883, 0.469, -0.469, -0.883, 1763.594, 3460.919)"/><circle class="b" cx="5" cy="5" r="5" transform="matrix(-0.883, 0.469, -0.469, -0.883, 1793.614, 3476.882)"/><circle class="b" cx="5" cy="5" r="5" transform="matrix(-0.883, 0.469, -0.469, -0.883, 1823.634, 3492.844)"/><circle class="b" cx="5" cy="5" r="5" transform="matrix(-0.883, 0.469, -0.469, -0.883, 1853.654, 3508.806)"/><circle class="b" cx="5" cy="5" r="5" transform="matrix(-0.883, 0.469, -0.469, -0.883, 1883.674, 3524.768)"/><circle class="b" cx="5" cy="5" r="5" transform="matrix(-0.883, 0.469, -0.469, -0.883, 1913.695, 3540.729)"/><circle class="b" cx="5" cy="5" r="5" transform="matrix(-0.883, 0.469, -0.469, -0.883, 1747.632, 3490.94)"/><circle class="b" cx="5" cy="5" r="5" transform="matrix(-0.883, 0.469, -0.469, -0.883, 1777.652, 3506.902)"/><circle class="b" cx="5" cy="5" r="5" transform="matrix(-0.883, 0.469, -0.469, -0.883, 1807.672, 3522.864)"/><circle class="b" cx="5" cy="5" r="5" transform="matrix(-0.883, 0.469, -0.469, -0.883, 1837.692, 3538.826)"/><circle class="b" cx="5" cy="5" r="5" transform="matrix(-0.883, 0.469, -0.469, -0.883, 1867.712, 3554.788)"/><circle class="b" cx="5" cy="5" r="5" transform="matrix(-0.883, 0.469, -0.469, -0.883, 1897.733, 3570.75)"/><circle class="b" cx="5" cy="5" r="5" transform="matrix(-0.883, 0.469, -0.469, -0.883, 1731.67, 3520.96)"/><circle class="b" cx="5" cy="5" r="5" transform="matrix(-0.883, 0.469, -0.469, -0.883, 1761.69, 3536.922)"/><circle class="b" cx="5" cy="5" r="5" transform="matrix(-0.883, 0.469, -0.469, -0.883, 1791.71, 3552.884)"/><circle class="b" cx="5" cy="5" r="5" transform="matrix(-0.883, 0.469, -0.469, -0.883, 1821.73, 3568.846)"/><circle class="b" cx="5" cy="5" r="5" transform="matrix(-0.883, 0.469, -0.469, -0.883, 1851.75, 3584.808)"/><circle class="b" cx="5" cy="5" r="5" transform="matrix(-0.883, 0.469, -0.469, -0.883, 1881.771, 3600.77)"/><circle class="b" cx="5" cy="5" r="5" transform="matrix(-0.883, 0.469, -0.469, -0.883, 1911.791, 3616.732)"/><circle class="b" cx="5" cy="5" r="5" transform="matrix(-0.883, 0.469, -0.469, -0.883, 1715.708, 3550.98)"/><circle class="b" cx="5" cy="5" r="5" transform="matrix(-0.883, 0.469, -0.469, -0.883, 1745.728, 3566.942)"/><circle class="b" cx="5" cy="5" r="5" transform="matrix(-0.883, 0.469, -0.469, -0.883, 1775.748, 3582.904)"/><circle class="b" cx="5" cy="5" r="5" transform="matrix(-0.883, 0.469, -0.469, -0.883, 1805.768, 3598.866)"/><circle class="b" cx="5" cy="5" r="5" transform="matrix(-0.883, 0.469, -0.469, -0.883, 1835.788, 3614.828)"/><circle class="b" cx="5" cy="5" r="5" transform="matrix(-0.883, 0.469, -0.469, -0.883, 1865.809, 3630.79)"/><circle class="b" cx="5" cy="5" r="5" transform="matrix(-0.883, 0.469, -0.469, -0.883, 1895.829, 3646.752)"/><circle class="b" cx="5" cy="5" r="5" transform="matrix(-0.883, 0.469, -0.469, -0.883, 1919.849, 3662.714)"/><circle class="b" cx="5" cy="5" r="5" transform="matrix(-0.883, 0.469, -0.469, -0.883, 1699.745, 3581)"/><circle class="b" cx="5" cy="5" r="5" transform="matrix(-0.883, 0.469, -0.469, -0.883, 1729.766, 3596.962)"/><circle class="b" cx="5" cy="5" r="5" transform="matrix(-0.883, 0.469, -0.469, -0.883, 1759.786, 3612.924)"/><circle class="b" cx="5" cy="5" r="5" transform="matrix(-0.883, 0.469, -0.469, -0.883, 1789.806, 3628.886)"/><circle class="b" cx="5" cy="5" r="5" transform="matrix(-0.883, 0.469, -0.469, -0.883, 1819.826, 3644.848)"/><circle class="b" cx="5" cy="5" r="5" transform="matrix(-0.883, 0.469, -0.469, -0.883, 1849.847, 3660.811)"/><circle class="b" cx="5" cy="5" r="5" transform="matrix(-0.883, 0.469, -0.469, -0.883, 1879.867, 3676.772)"/><circle class="b" cx="5" cy="5" r="5" transform="matrix(-0.883, 0.469, -0.469, -0.883, 1909.887, 3692.735)"/><circle class="b" cx="5" cy="5" r="5" transform="matrix(-0.883, 0.469, -0.469, -0.883, 1683.783, 3611.021)"/><circle class="b" cx="5" cy="5" r="5" transform="matrix(-0.883, 0.469, -0.469, -0.883, 1713.804, 3626.983)"/><circle class="b" cx="5" cy="5" r="5" transform="matrix(-0.883, 0.469, -0.469, -0.883, 1743.824, 3642.945)"/><circle class="b" cx="5" cy="5" r="5" transform="matrix(-0.883, 0.469, -0.469, -0.883, 1773.844, 3658.907)"/><circle class="b" cx="5" cy="5" r="5" transform="matrix(-0.883, 0.469, -0.469, -0.883, 1803.864, 3674.869)"/><circle class="b" cx="5" cy="5" r="5" transform="matrix(-0.883, 0.469, -0.469, -0.883, 1833.885, 3690.831)"/><circle class="b" cx="5" cy="5" r="5" transform="matrix(-0.883, 0.469, -0.469, -0.883, 1863.905, 3706.793)"/><circle class="b" cx="5" cy="5" r="5" transform="matrix(-0.883, 0.469, -0.469, -0.883, 1893.925, 3722.755)"/><circle class="b" cx="5" cy="5" r="5" transform="matrix(-0.883, 0.469, -0.469, -0.883, 1667.821, 3641.041)"/><circle class="b" cx="5" cy="5" r="5" transform="matrix(-0.883, 0.469, -0.469, -0.883, 1697.842, 3657.003)"/><circle class="b" cx="5" cy="5" r="5" transform="matrix(-0.883, 0.469, -0.469, -0.883, 1727.862, 3672.965)"/><circle class="b" cx="5" cy="5" r="5" transform="matrix(-0.883, 0.469, -0.469, -0.883, 1757.882, 3688.927)"/><circle class="b" cx="5" cy="5" r="5" transform="matrix(-0.883, 0.469, -0.469, -0.883, 1787.902, 3704.889)"/><circle class="b" cx="5" cy="5" r="5" transform="matrix(-0.883, 0.469, -0.469, -0.883, 1817.922, 3720.851)"/><circle class="b" cx="5" cy="5" r="5" transform="matrix(-0.883, 0.469, -0.469, -0.883, 1847.943, 3736.813)"/><circle class="b" cx="5" cy="5" r="5" transform="matrix(-0.883, 0.469, -0.469, -0.883, 1877.963, 3752.775)"/><circle class="b" cx="5" cy="5" r="5" transform="matrix(-0.883, 0.469, -0.469, -0.883, 1651.859, 3671.061)"/><circle class="b" cx="5" cy="5" r="5" transform="matrix(-0.883, 0.469, -0.469, -0.883, 1681.88, 3687.023)"/><circle class="b" cx="5" cy="5" r="5" transform="matrix(-0.883, 0.469, -0.469, -0.883, 1711.9, 3702.985)"/><circle class="b" cx="5" cy="5" r="5" transform="matrix(-0.883, 0.469, -0.469, -0.883, 1741.92, 3718.947)"/><circle class="b" cx="5" cy="5" r="5" transform="matrix(-0.883, 0.469, -0.469, -0.883, 1771.94, 3734.909)"/><circle class="b" cx="5" cy="5" r="5" transform="matrix(-0.883, 0.469, -0.469, -0.883, 1801.96, 3750.871)"/><circle class="b" cx="5" cy="5" r="5" transform="matrix(-0.883, 0.469, -0.469, -0.883, 1831.981, 3766.833)"/><circle class="b" cx="5" cy="5" r="5" transform="matrix(-0.883, 0.469, -0.469, -0.883, 1862.001, 3782.795)"/><circle class="b" cx="5" cy="5" r="5" transform="matrix(-0.883, 0.469, -0.469, -0.883, 1635.897, 3701.081)"/><circle class="b" cx="5" cy="5" r="5" transform="matrix(-0.883, 0.469, -0.469, -0.883, 1665.917, 3717.043)"/><circle class="b" cx="5" cy="5" r="5" transform="matrix(-0.883, 0.469, -0.469, -0.883, 1695.938, 3733.005)"/><circle class="b" cx="5" cy="5" r="5" transform="matrix(-0.883, 0.469, -0.469, -0.883, 1725.958, 3748.967)"/><circle class="b" cx="5" cy="5" r="5" transform="matrix(-0.883, 0.469, -0.469, -0.883, 1755.978, 3764.929)"/><circle class="b" cx="5" cy="5" r="5" transform="matrix(-0.883, 0.469, -0.469, -0.883, 1785.998, 3780.891)"/><circle class="b" cx="5" cy="5" r="5" transform="matrix(-0.883, 0.469, -0.469, -0.883, 1816.019, 3796.853)"/><circle class="b" cx="5" cy="5" r="5" transform="matrix(-0.883, 0.469, -0.469, -0.883, 1846.039, 3812.815)"/><circle class="b" cx="5" cy="5" r="5" transform="matrix(-0.883, 0.469, -0.469, -0.883, 1619.935, 3731.101)"/><circle class="b" cx="5" cy="5" r="5" transform="matrix(-0.883, 0.469, -0.469, -0.883, 1649.955, 3747.063)"/><circle class="b" cx="5" cy="5" r="5" transform="matrix(-0.883, 0.469, -0.469, -0.883, 1679.976, 3763.025)"/><circle class="b" cx="5" cy="5" r="5" transform="matrix(-0.883, 0.469, -0.469, -0.883, 1709.996, 3778.988)"/><circle class="b" cx="5" cy="5" r="5" transform="matrix(-0.883, 0.469, -0.469, -0.883, 1740.016, 3794.949)"/><circle class="b" cx="5" cy="5" r="5" transform="matrix(-0.883, 0.469, -0.469, -0.883, 1770.036, 3810.912)"/><circle class="b" cx="5" cy="5" r="5" transform="matrix(-0.883, 0.469, -0.469, -0.883, 1800.057, 3826.874)"/><circle class="b" cx="5" cy="5" r="5" transform="matrix(-0.883, 0.469, -0.469, -0.883, 1830.077, 3842.836)"/><circle class="b" cx="5" cy="5" r="5" transform="matrix(-0.883, 0.469, -0.469, -0.883, 1603.973, 3761.122)"/><circle class="b" cx="5" cy="5" r="5" transform="matrix(-0.883, 0.469, -0.469, -0.883, 1633.994, 3777.084)"/><circle class="b" cx="5" cy="5" r="5" transform="matrix(-0.883, 0.469, -0.469, -0.883, 1664.014, 3793.046)"/><circle class="b" cx="5" cy="5" r="5" transform="matrix(-0.883, 0.469, -0.469, -0.883, 1694.034, 3809.008)"/><circle class="b" cx="5" cy="5" r="5" transform="matrix(-0.883, 0.469, -0.469, -0.883, 1724.054, 3824.97)"/><circle class="b" cx="5" cy="5" r="5" transform="matrix(-0.883, 0.469, -0.469, -0.883, 1754.074, 3840.932)"/><circle class="b" cx="5" cy="5" r="5" transform="matrix(-0.883, 0.469, -0.469, -0.883, 1784.095, 3856.894)"/><circle class="b" cx="5" cy="5" r="5" transform="matrix(-0.883, 0.469, -0.469, -0.883, 1814.115, 3872.856)"/><path class="c" d="M1935.963,3628.571s-155.112-133.74-134-253.4,134-126.7,134-126.7Z" transform="translate(-16 12)"/></g></svg>